<?xml version="1.0" encoding="utf-8"?>
<!-- Generator: Adobe Illustrator 22.1.0, SVG Export Plug-In . SVG Version: 6.00 Build 0)  -->
<svg version="1.1" id="Layer_1" xmlns="http://www.w3.org/2000/svg" xmlns:xlink="http://www.w3.org/1999/xlink" x="0px" y="0px"
	 viewBox="0 0 237 24" style="enable-background:new 0 0 237 24;" xml:space="preserve">
<style type="text/css">
	.st0{fill:#FFFFFF;}
	.st1{filter:url(#Adobe_OpacityMaskFilter);}
	.st2{mask:url(#mask-2_1_);fill:#FFFFFF;}
</style>
<title>mdpi/Group 6</title>
<desc>Created with Sketch.</desc>
<g id="Page-1">
	<g id="Invisor_Create-Account_Dsktp" transform="translate(-390.000000, -30.000000)">
		<g id="Group-7">
			<g id="Group-3">
				<g id="Group-6" transform="translate(390.000000, 30.000000)">
					<path id="Fill-1" class="st0" d="M0,4.4h4V0H0V4.4z M0.1,24h3.8V6.4H0.1V24z"/>
					<path id="Fill-2" class="st0" d="M16.7,1L7,24h5.1l2.1-5.1h9.6l2.1,5.1H31L21.3,1H16.7z M18.9,7l3,7.4h-6L18.9,7z"/>
					<g id="Group-5" transform="translate(42.000000, 0.000000)">
						<g id="Clip-4">
						</g>
						<defs>
							<filter id="Adobe_OpacityMaskFilter" filterUnits="userSpaceOnUse" x="0.1" y="0.4" width="194.6" height="23.6">
								<feColorMatrix  type="matrix" values="1 0 0 0 0  0 1 0 0 0  0 0 1 0 0  0 0 0 1 0"/>
							</filter>
						</defs>
						<mask maskUnits="userSpaceOnUse" x="0.1" y="0.4" width="194.6" height="23.6" id="mask-2_1_">
							<g class="st1">
								<polygon id="path-1_1_" class="st0" points="0.1,0.4 194.7,0.4 194.7,24 0.1,24 								"/>
							</g>
						</mask>
						<path id="Fill-3" class="st2" d="M187.6,19.5V8.8h-2.3V7.4h2.3V2.2h1.5v5.2h5.6v1.4h-5.6v10.5c0,2.3,1.3,3.1,3.2,3.1
							c0.8,0,1.4-0.2,2.3-0.6v1.5c-0.8,0.4-1.6,0.6-2.6,0.6C189.6,23.9,187.6,22.5,187.6,19.5z M170.2,21.6l0.9-1.2
							c1.8,1.4,3.7,2.1,5.7,2.1c2.2,0,3.9-1.2,3.9-3.1v-0.1c0-1.9-2-2.6-4.2-3.2c-2.6-0.8-5.5-1.6-5.5-4.5v-0.1
							c0-2.6,2.2-4.5,5.3-4.5c1.9,0,4.1,0.7,5.7,1.8l-0.8,1.3c-1.5-1-3.2-1.6-4.9-1.6c-2.2,0-3.6,1.2-3.6,2.8v0.1
							c0,1.8,2.2,2.5,4.4,3.1c2.6,0.7,5.3,1.7,5.3,4.5v0.1c0,2.9-2.4,4.7-5.5,4.7C174.5,23.9,171.9,23,170.2,21.6z M164.8,23.6h1.5
							V7.4h-1.5V23.6z M164.6,3.2h1.9V1h-1.9V3.2z M148.4,21.6l0.9-1.2c1.8,1.4,3.7,2.1,5.7,2.1c2.2,0,3.9-1.2,3.9-3.1v-0.1
							c0-1.9-2-2.6-4.2-3.2c-2.6-0.8-5.5-1.6-5.5-4.5v-0.1c0-2.6,2.2-4.5,5.3-4.5c1.9,0,4.1,0.7,5.7,1.8l-0.8,1.3
							c-1.5-1-3.2-1.6-4.9-1.6c-2.2,0-3.6,1.2-3.6,2.8v0.1c0,1.8,2.2,2.5,4.4,3.1c2.6,0.7,5.3,1.7,5.3,4.5v0.1
							c0,2.9-2.4,4.7-5.5,4.7C152.7,23.9,150.1,23,148.4,21.6z M133.4,21.6l0.9-1.2c1.8,1.4,3.7,2.1,5.7,2.1c2.2,0,3.9-1.2,3.9-3.1
							v-0.1c0-1.9-2-2.6-4.2-3.2c-2.6-0.8-5.5-1.6-5.5-4.5v-0.1c0-2.6,2.2-4.5,5.3-4.5c1.9,0,4.1,0.7,5.7,1.8l-0.8,1.3
							c-1.5-1-3.2-1.6-4.9-1.6c-2.2,0-3.6,1.2-3.6,2.8v0.1c0,1.8,2.2,2.5,4.4,3.1c2.6,0.7,5.3,1.7,5.3,4.5v0.1
							c0,2.9-2.4,4.7-5.5,4.7C137.6,23.9,135.1,23,133.4,21.6z M125.3,15.9L119.6,3l-5.8,12.9H125.3z M118.8,1.2h1.6l10.2,22.4h-1.8
							l-2.8-6.2h-12.9l-2.8,6.2h-1.7L118.8,1.2z M91.3,0.4h1.5v10C93.9,8.5,95.7,7,98.6,7c4,0,6.4,2.8,6.4,6.7v9.9h-1.5V14
							c0-3.3-1.8-5.5-5.1-5.5c-3.1,0-5.5,2.4-5.5,5.8v9.4h-1.5V0.4z M80.5,19.5V8.8h-2.3V7.4h2.3V2.2H82v5.2h5.6v1.4H82v10.5
							c0,2.3,1.3,3.1,3.2,3.1c0.8,0,1.4-0.2,2.3-0.6v1.5c-0.8,0.4-1.6,0.6-2.6,0.6C82.5,23.9,80.5,22.5,80.5,19.5z M72.9,23.6h1.5
							V0.4h-1.5V23.6z M65.8,15.5L65.8,15.5c0-4.2-3.2-7-6.5-7c-3.5,0-6.3,2.6-6.3,6.9v0.1c0,4.3,2.9,7,6.3,7
							C62.6,22.5,65.8,19.7,65.8,15.5z M51.3,15.6L51.3,15.6c0-5.3,3.9-8.6,7.8-8.6c3.2,0,5.3,1.8,6.6,3.9V7.4h1.5v16.2h-1.5V20
							c-1.4,2.1-3.4,4-6.6,4C55.2,24,51.3,20.9,51.3,15.6z M46.2,14.7c-0.2-3.3-2.1-6.3-5.7-6.3c-3.2,0-5.6,2.7-5.9,6.3H46.2z
							 M33,15.5L33,15.5c0-4.8,3.3-8.5,7.6-8.5c4.5,0,7.3,3.7,7.3,8.5c0,0.3,0,0.4,0,0.6H34.6c0.3,4,3.1,6.4,6.3,6.4
							c2.5,0,4.2-1.1,5.5-2.5l1.1,1c-1.6,1.8-3.5,3.1-6.6,3.1C36.6,24,33,20.6,33,15.5z M0.1,1.4h1.8l6.9,19.8l6.4-19.9h1.3
							l6.4,19.9l6.9-19.8h1.7l-8,22.4h-1.3L15.7,4.4L9.3,23.8H8L0.1,1.4z"/>
					</g>
				</g>
			</g>
		</g>
	</g>
</g>
</svg>
